<?xml version="1.0" encoding="UTF-8"?>
<svg viewBox="0 0 37 37" version="1.1" xmlns="http://www.w3.org/2000/svg" xmlns:xlink="http://www.w3.org/1999/xlink">
    <title>linkedin_icon_white</title>
    <g id="Symbols" stroke="none" stroke-width="1" fill="none" fill-rule="evenodd">
        <g id="social-icons-copy" transform="translate(-175.000000, 0.000000)" fill="rgb(40,40,40)" fill-rule="nonzero">
            <g id="linkedin_icon_white" transform="translate(175.000000, 0.000000)">
                <path d="M33.5999994,0 L2.79999995,0 C1.25999998,0 0,1.11999998 0,2.65999995 L0,33.5999994 C0,35.1399994 1.25999998,36.2599994 2.65999995,36.2599994 L33.4599994,36.2599994 C35,36.2599994 36.1199994,35.1399994 36.1199994,33.5999994 L36.1199994,2.65999995 C36.2599994,1.11999998 35,0 33.5999994,0 Z M10.7799998,30.7999995 L5.31999991,30.7999995 L5.31999991,13.5799998 L10.6399998,13.5799998 L10.6399998,30.7999995 L10.7799998,30.7999995 Z M7.97999986,11.1999998 C6.29999989,11.1999998 4.89999992,9.79999983 4.89999992,8.11999986 C4.89999992,6.43999989 6.29999989,5.03999991 7.97999986,5.03999991 C9.79999983,5.03999991 11.1999998,6.43999989 11.1999998,8.11999986 C11.1999998,9.79999983 9.79999983,11.1999998 7.97999986,11.1999998 Z M30.7999995,30.7999995 L25.4799996,30.7999995 L25.4799996,22.3999996 C25.4799996,20.4399997 25.4799996,17.7799997 22.6799996,17.7799997 C19.8799997,17.7799997 19.4599997,20.0199997 19.4599997,22.2599996 L19.4599997,30.7999995 L14.1399998,30.7999995 L14.1399998,13.5799998 L19.3199997,13.5799998 L19.3199997,15.9599997 L19.3199997,15.9599997 C20.0199997,14.5599998 21.8399996,13.1599998 24.3599996,13.1599998 C29.8199995,13.1599998 30.7999995,16.6599998 30.7999995,21.4199996 L30.7999995,30.7999995 Z" id="Shape"></path>
            </g>
        </g>
    </g>
</svg>
