<?xml version="1.0" encoding="UTF-8" standalone="no" ?>
<!DOCTYPE svg PUBLIC "-//W3C//DTD SVG 1.1//EN" "http://www.w3.org/Graphics/SVG/1.1/DTD/svg11.dtd">
<svg xmlns="http://www.w3.org/2000/svg" xmlns:xlink="http://www.w3.org/1999/xlink" version="1.1" viewBox="0 0 500 500" xml:space="preserve">
<desc>Created with Fabric.js 4.6.0</desc>
<defs>
</defs>
<g transform="matrix(1.25 0 0 1.25 250 250)" id="SEYluKavt5dw02_Vjalle"  >
<g style="" vector-effect="non-scaling-stroke"   >
		<g transform="matrix(-0.64 0.77 -0.56 -0.47 -71.29 -36.56)" id="_ibjIgHwuswLCsbepWi6J"  >
<path style="stroke: rgb(65,46,177); stroke-width: 0; stroke-dasharray: none; stroke-linecap: butt; stroke-dashoffset: 0; stroke-linejoin: miter; stroke-miterlimit: 4; fill: rgb(40,40,40); fill-rule: nonzero; opacity: 1;" vector-effect="non-scaling-stroke"  transform=" translate(0, 0)" d="M -18 -148.15 L 18 -148.15 L 18 148.15 L -18 148.15 z" stroke-linecap="round" />
</g>
		<g transform="matrix(1 0 0 1 -165.3 -0.69)" id="lrzaHT1Jcac2LX0hHVAju"  >
<path style="stroke: rgb(65,46,177); stroke-width: 0; stroke-dasharray: none; stroke-linecap: butt; stroke-dashoffset: 0; stroke-linejoin: miter; stroke-miterlimit: 4; fill: rgb(40,40,40); fill-rule: nonzero; opacity: 1;" vector-effect="non-scaling-stroke"  transform=" translate(-18, -94.15)" d="M 0 0 L 36 0 L 36 188.3 L 0 188.3 z" stroke-linecap="round" />
</g>
		<g transform="matrix(0.64 0.77 0.56 -0.47 71.12 -36.41)" id="lbsDNlahTPMY49fp062Nl"  >
<path style="stroke: rgb(65,46,177); stroke-width: 0; stroke-dasharray: none; stroke-linecap: butt; stroke-dashoffset: 0; stroke-linejoin: miter; stroke-miterlimit: 4; fill: rgb(40,40,40); fill-rule: nonzero; opacity: 1;" vector-effect="non-scaling-stroke"  transform=" translate(0, 0)" d="M -18 -148.15 L 18 -148.15 L 18 148.15 L -18 148.15 z" stroke-linecap="round" />
</g>
		<g transform="matrix(1 0 0 1 165.38 -0.19)" id="_fBhGOlfm1PaK0l3yoLEY"  >
<path style="stroke: rgb(65,46,177); stroke-width: 0; stroke-dasharray: none; stroke-linecap: butt; stroke-dashoffset: 0; stroke-linejoin: miter; stroke-miterlimit: 4; fill: rgb(40,40,40); fill-rule: nonzero; opacity: 1;" vector-effect="non-scaling-stroke"  transform=" translate(-18, -93.75)" d="M 0 0 L 36 0 L 36 187.5 L 0 187.5 z" stroke-linecap="round" />
</g>
		<g transform="matrix(0 1 -1 0 0.15 -110.72)" id="isr8WCRQ-4a15VLUwc7eY"  >
<path style="stroke: rgb(65,46,177); stroke-width: 0; stroke-dasharray: none; stroke-linecap: butt; stroke-dashoffset: 0; stroke-linejoin: miter; stroke-miterlimit: 4; fill: rgb(40,40,40); fill-rule: nonzero; opacity: 1;" vector-effect="non-scaling-stroke"  transform=" translate(-18, -148.15)" d="M 0 0 L 36 0 L 36 296.3 L 0 296.3 z" stroke-linecap="round" />
</g>
		<g transform="matrix(0 1 -1 0 -0.16 110.75)" id="0CX_QcH0bR6raPK_KVSH2"  >
<path style="stroke: rgb(65,46,177); stroke-width: 0; stroke-dasharray: none; stroke-linecap: butt; stroke-dashoffset: 0; stroke-linejoin: miter; stroke-miterlimit: 4; fill: rgb(40,40,40); fill-rule: nonzero; opacity: 1;" vector-effect="non-scaling-stroke"  transform=" translate(-18, -148)" d="M 0 0 L 36 0 L 36 296 L 0 296 z" stroke-linecap="round" />
</g>
		<g transform="matrix(1 0 0 1 165.3 -110.64)" id="_e7tXn-sJGGEPcnRQ0hFs"  >
<path style="stroke: none; stroke-width: 1; stroke-dasharray: none; stroke-linecap: butt; stroke-dashoffset: 0; stroke-linejoin: miter; stroke-miterlimit: 4; fill: rgb(40,40,40); fill-rule: nonzero; opacity: 1;" vector-effect="non-scaling-stroke"  transform=" translate(-18, -18)" d="M 36 35.89972 L 36 35.89972 L 0 36 L 0 0 C 19.91061 0 36 16.04457 36 35.89972 z" stroke-linecap="round" />
</g>
		<g transform="matrix(-1 0 0 1 -165.25 -110.74)" id="1SJY7dsR87sun2EngQoE0"  >
<path style="stroke: none; stroke-width: 1; stroke-dasharray: none; stroke-linecap: butt; stroke-dashoffset: 0; stroke-linejoin: miter; stroke-miterlimit: 4; fill: rgb(40,40,40); fill-rule: nonzero; opacity: 1;" vector-effect="non-scaling-stroke"  transform=" translate(-18.1, -18)" d="M 36.2 35.89972 L 36.2 35.89972 L 0 36 L 0 0 C 20.02125 0 36.2 16.04457 36.2 35.89972 z" stroke-linecap="round" />
</g>
		<g transform="matrix(-1 0 0 -1 -165.3 110.75)" id="RJHB6ovPkZLOmcw_PWADz"  >
<path style="stroke: none; stroke-width: 1; stroke-dasharray: none; stroke-linecap: butt; stroke-dashoffset: 0; stroke-linejoin: miter; stroke-miterlimit: 4; fill: rgb(40,40,40); fill-rule: nonzero; opacity: 1;" vector-effect="non-scaling-stroke"  transform=" translate(-18.1, -18)" d="M 36.2 35.89972 L 36.2 35.89972 L 0 36 L 0 0 C 20.02125 0 36.2 16.04457 36.2 35.89972 z" stroke-linecap="round" />
</g>
		<g transform="matrix(1 0 0 -1 165.3 110.75)" id="nKarsmY3CN9hC_-xmfOG4"  >
<path style="stroke: none; stroke-width: 1; stroke-dasharray: none; stroke-linecap: butt; stroke-dashoffset: 0; stroke-linejoin: miter; stroke-miterlimit: 4; fill: rgb(40,40,40); fill-rule: nonzero; opacity: 1;" vector-effect="non-scaling-stroke"  transform=" translate(-18.1, -18)" d="M 36.2 35.89972 L 36.2 35.89972 L 0 36 L 0 0 C 20.02125 0 36.2 16.04457 36.2 35.89972 z" stroke-linecap="round" />
</g>
</g>
</g>
</svg>
