<?xml version="1.0" encoding="UTF-8" standalone="no" ?>
<!DOCTYPE svg PUBLIC "-//W3C//DTD SVG 1.1//EN" "http://www.w3.org/Graphics/SVG/1.1/DTD/svg11.dtd">
<svg xmlns="http://www.w3.org/2000/svg" xmlns:xlink="http://www.w3.org/1999/xlink" version="1.1" viewBox="0 0 450 580" xml:space="preserve">
<desc>Created with Fabric.js 4.6.0</desc>
<defs>
</defs>
<g transform="matrix(1.75 0 0 1.75 221.67 164.33)" id="WqfL0Ob7jmrhrdsE5-7Xb"  >
<path style="stroke: none; stroke-width: 1; stroke-dasharray: none; stroke-linecap: butt; stroke-dashoffset: 0; stroke-linejoin: miter; stroke-miterlimit: 4; fill: rgb(255,152,17); fill-rule: nonzero; opacity: 1;" vector-effect="non-scaling-stroke"  transform=" translate(-244.24, -172.96)" d="M 239.609 255.922 C 239.609 255.922 222.383 222.764 223.03 198.476 C 223.494 181.184 262.538 164.025 277.89 139.156 C 293.241 114.221 276.016 90 276.016 90 C 276.016 90 279.829 107.872 269.6 126.39 C 259.437 144.843 221.73700000000002 155.735 207.04700000000003 187.65 C 192.408 219.581 239.609 255.922 239.609 255.922 z" stroke-linecap="round" />
</g>
<g transform="matrix(1.75 0 0 1.75 275.17 231.52)" id="VzJop2zn-tGqt8fGZUgYq"  >
<path style="stroke: none; stroke-width: 1; stroke-dasharray: none; stroke-linecap: butt; stroke-dashoffset: 0; stroke-linejoin: miter; stroke-miterlimit: 4; fill: rgb(255,152,17); fill-rule: nonzero; opacity: 1;" vector-effect="non-scaling-stroke"  transform=" translate(-274.75, -211.27)" d="M 304.117 155.088 C 304.117 155.088 245.37800000000001 177.42 245.37800000000001 202.935 C 245.37800000000001 228.517 261.31 236.806 263.897 245.095 C 266.433 253.385 259.437 267.444 259.437 267.444 C 259.437 267.444 282.415 251.44500000000002 278.536 232.99300000000002 C 274.723 214.47400000000002 256.834 208.704 267.079 190.18600000000004 C 273.943 177.818 304.117 155.088 304.117 155.088 z" stroke-linecap="round" />
</g>
<g transform="matrix(1.75 0 0 1.75 200.38 343.02)" id="ss6JTdWVTliXpPfGSKIR1"  >
<path style="stroke: none; stroke-width: 1; stroke-dasharray: none; stroke-linecap: butt; stroke-dashoffset: 0; stroke-linejoin: miter; stroke-miterlimit: 4; fill: rgb(83,130,161); fill-rule: nonzero; opacity: 1;" vector-effect="non-scaling-stroke"  transform=" translate(-232.11, -274.83)" d="M 233.275 289.66 C 287.538 287.721 307.283 270.61100000000005 307.283 270.61100000000005 C 272.18600000000004 280.1940000000001 178.995 279.547 178.34900000000002 272.55100000000004 C 177.70200000000003 265.50500000000005 207.04700000000003 259.73500000000007 207.04700000000003 259.73500000000007 C 207.04700000000003 259.73500000000007 161.12300000000002 259.73500000000007 157.31000000000003 271.25700000000006 C 153.481 282.73 178.995 291.6 233.275 289.66 z" stroke-linecap="round" />
</g>
<g transform="matrix(1.75 0 0 1.75 382.39 362.72)" id="9PDX2MXQ9zdCrFs3XYBfk"  >
<path style="stroke: none; stroke-width: 1; stroke-dasharray: none; stroke-linecap: butt; stroke-dashoffset: 0; stroke-linejoin: miter; stroke-miterlimit: 4; fill: rgb(83,130,161); fill-rule: nonzero; opacity: 1;" vector-effect="non-scaling-stroke"  transform=" translate(-335.87, -286.06)" d="M 311.76 316.601 C 311.76 316.601 364.863 305.261 359.623 276.381 C 353.27299999999997 241.28299999999996 316.21999999999997 261.09499999999997 316.21999999999997 261.09499999999997 C 316.21999999999997 261.09499999999997 342.39799999999997 261.09499999999997 344.91799999999995 277.027 C 347.504 292.959 311.76 316.601 311.76 316.601 z" stroke-linecap="round" />
</g>
<g transform="matrix(1.75 0 0 1.75 211.83 401.34)" id="t2KuqQeh0L1Z-MJPVe63h"  >
<path style="stroke: none; stroke-width: 1; stroke-dasharray: none; stroke-linecap: butt; stroke-dashoffset: 0; stroke-linejoin: miter; stroke-miterlimit: 4; fill: rgb(83,130,161); fill-rule: nonzero; opacity: 1;" vector-effect="non-scaling-stroke"  transform=" translate(-238.64, -308.08)" d="M 285.598 301.249 C 285.598 301.249 272.18600000000004 304.81300000000005 252.37400000000002 307.01800000000003 C 225.81500000000003 309.98600000000005 193.63500000000002 307.665 191.115 303.189 C 188.578 298.72900000000004 195.574 296.12600000000003 195.574 296.12600000000003 C 163.643 303.83500000000004 181.13400000000001 317.182 218.50300000000001 319.76800000000003 C 250.616 321.973 298.347 310.185 298.347 310.185 L 285.598 301.249 z" stroke-linecap="round" />
</g>
<g transform="matrix(1.75 0 0 1.75 215.37 460.13)" id="D5mlgk4uwEsQ0Uzm6RSMI"  >
<path style="stroke: none; stroke-width: 1; stroke-dasharray: none; stroke-linecap: butt; stroke-dashoffset: 0; stroke-linejoin: miter; stroke-miterlimit: 4; fill: rgb(83,130,161); fill-rule: nonzero; opacity: 1;" vector-effect="non-scaling-stroke"  transform=" translate(-240.65, -341.6)" d="M 203.284 329.168 C 203.284 329.168 188.778 329.549 187.932 337.193 C 187.08599999999998 344.835 196.868 351.69899999999996 232.612 353.77099999999996 C 268.373 355.90999999999997 293.424 344.056 293.424 344.056 L 277.30899999999997 334.20799999999997 C 277.30899999999997 334.20799999999997 267.07899999999995 336.347 251.32899999999998 338.48499999999996 C 235.59499999999997 340.62399999999997 203.283 336.794 201.98999999999998 333.82599999999996 C 200.698 330.842 203.284 329.168 203.284 329.168 z" stroke-linecap="round" />
</g>
<g transform="matrix(1.75 0 0 1.75 211.22 505.46)" id="2HZEuLyU_voG-kyJIEKsW"  >
<path style="stroke: none; stroke-width: 1; stroke-dasharray: none; stroke-linecap: butt; stroke-dashoffset: 0; stroke-linejoin: miter; stroke-miterlimit: 4; fill: rgb(83,130,161); fill-rule: nonzero; opacity: 1;" vector-effect="non-scaling-stroke"  transform=" translate(-238.29, -367.44)" d="M 226.66 383.63 C 303.205 383.564 336.894 369.57099999999997 342.398 363.61899999999997 C 347.90200000000004 357.65099999999995 340.64000000000004 352.99199999999996 340.64000000000004 352.99199999999996 C 340.64000000000004 352.99199999999996 343.22600000000006 355.977 339.86100000000005 359.342 C 336.42900000000003 362.774 305.3430000000001 371.263 255.54000000000005 373.782 C 205.80300000000005 376.368 151.73900000000003 369.123 150.04700000000005 362.774 C 148.35700000000006 356.358 177.70100000000005 351.252 177.70100000000005 351.252 C 174.33500000000004 351.699 133.46800000000005 352.544 132.17500000000004 363.619 C 130.884 374.694 150.048 383.63 226.66 383.63 z" stroke-linecap="round" />
</g>
<g transform="matrix(1.75 0 0 1.75 261.71 535.39)" id="WYhn1C4ucfTYAumI_8ypI"  >
<path style="stroke: none; stroke-width: 1; stroke-dasharray: none; stroke-linecap: butt; stroke-dashoffset: 0; stroke-linejoin: miter; stroke-miterlimit: 4; fill: rgb(83,130,161); fill-rule: nonzero; opacity: 1;" vector-effect="non-scaling-stroke"  transform=" translate(-267.07, -384.51)" d="M 312.606 388.736 C 278.984 395.483 176.858 391.206 176.858 391.206 C 176.858 391.206 243.24 407.00600000000003 319.006 393.79200000000003 C 355.21399999999994 387.442 357.287 369.95200000000006 357.287 369.95200000000006 C 357.287 369.95200000000006 346.211 381.873 312.606 388.736 z" stroke-linecap="round" />
</g>
</svg>
