<?xml version="1.0" encoding="utf-8"?>
<svg viewBox="0 0 150 150" xmlns="http://www.w3.org/2000/svg">
  <defs>
    <linearGradient id="b" x1="26.649" x2="135.67" y1="20.604" y2="114.4" gradientTransform="matrix(0.56254, 0, 0, 0.56797, 3.74958, 0.998079)" gradientUnits="userSpaceOnUse">
      <stop stop-color="#5a9fd4" offset="0"/>
      <stop stop-color="#306998" offset="1"/>
    </linearGradient>
    <linearGradient id="c" x1="150.96" x2="112.03" y1="192.35" y2="137.27" gradientTransform="matrix(0.56254, 0, 0, 0.56797, 3.74958, 0.998079)" gradientUnits="userSpaceOnUse">
      <stop stop-color="#ffd43b" offset="0"/>
      <stop stop-color="#ffe873" offset="1"/>
    </linearGradient>
    <radialGradient id="a" cx="61.519" cy="132.29" r="29.037" gradientTransform="matrix(0, -0.239942, 1.054698, 0, -64.956795, 155.161362)" gradientUnits="userSpaceOnUse">
      <stop stop-color="#b8b8b8" stop-opacity=".49804" offset="0"/>
      <stop stop-color="#7f7f7f" stop-opacity="0" offset="1"/>
    </radialGradient>
  </defs>
  <path d="M 73.659 12.701 C 69.076 12.722 64.698 13.113 60.847 13.795 C 49.501 15.799 47.441 19.995 47.441 27.733 L 47.441 37.952 L 74.253 37.952 L 74.253 41.358 L 47.441 41.358 L 37.379 41.358 C 29.587 41.358 22.763 46.042 20.629 54.952 C 18.167 65.165 18.058 71.538 20.629 82.202 C 22.535 90.14 27.087 95.796 34.879 95.796 L 44.098 95.796 L 44.098 83.546 C 44.098 74.696 51.755 66.89 60.848 66.89 L 87.629 66.89 C 95.084 66.89 101.035 60.752 101.035 53.265 L 101.035 27.734 C 101.035 20.468 94.905 15.009 87.629 13.796 C 83.023 13.029 78.244 12.681 73.66 12.702 Z M 59.159 20.92 C 61.929 20.92 64.19 23.218 64.19 26.045 C 64.19 28.861 61.929 31.139 59.159 31.139 C 56.38 31.139 54.128 28.861 54.128 26.045 C 54.128 23.218 56.38 20.92 59.159 20.92 Z" fill="url(#b)"/>
  <path d="M 104.378 41.357 L 104.378 53.263 C 104.378 62.494 96.552 70.263 87.628 70.263 L 60.847 70.263 C 53.511 70.263 47.441 76.542 47.441 83.888 L 47.441 109.419 C 47.441 116.685 53.76 120.959 60.847 123.044 C 69.335 125.54 77.473 125.991 87.628 123.044 C 94.378 121.09 101.034 117.156 101.034 109.419 L 101.034 99.2 L 74.253 99.2 L 74.253 95.794 L 101.034 95.794 L 114.44 95.794 C 122.233 95.794 125.136 90.358 127.846 82.2 C 130.646 73.801 130.526 65.724 127.846 54.95 C 125.92 47.192 122.242 41.356 114.44 41.356 L 104.377 41.356 Z M 89.316 106.013 C 92.096 106.013 94.347 108.29 94.347 111.107 C 94.347 113.933 92.096 116.232 89.316 116.232 C 86.547 116.232 84.285 113.933 84.285 111.107 C 84.285 108.29 86.547 106.013 89.316 106.013 Z" fill="url(#c)"/>
  <path d="M 110.491 140.403 C 110.491 145.767 80.548 149.119 56.594 146.437 C 45.477 145.193 38.629 142.893 38.629 140.403 C 38.629 135.04 68.571 131.688 92.525 134.37 C 103.642 135.614 110.491 137.914 110.491 140.403 Z" fill="url(#a)" opacity=".44382"/>
</svg>
