<?xml version="1.0" encoding="UTF-8" standalone="no" ?>
<!DOCTYPE svg PUBLIC "-//W3C//DTD SVG 1.1//EN" "http://www.w3.org/Graphics/SVG/1.1/DTD/svg11.dtd">
<svg xmlns="http://www.w3.org/2000/svg" xmlns:xlink="http://www.w3.org/1999/xlink" version="1.1" viewBox="0 0 600 330" xml:space="preserve">
<desc>Created with Fabric.js 4.6.0</desc>
<defs>
</defs>
<g transform="matrix(1 0 0 1 300 164.3)" id="kxB-rot1YkBZorRixF38f"  >
<g style="" vector-effect="non-scaling-stroke"   >
		<g transform="matrix(0.94 0.34 -0.34 0.94 0 0)" id="aqAdZ23AKWbrdsxpFmCWK"  >
<g style="" vector-effect="non-scaling-stroke"   >
		<g transform="matrix(1 0 0 1 0 0)" id="2n1NqviPpJqJ_Wab7JFt6"  >
<path style="stroke: rgb(0,0,0); stroke-width: 0; stroke-dasharray: none; stroke-linecap: butt; stroke-dashoffset: 0; stroke-linejoin: miter; stroke-miterlimit: 4; fill: rgb(0,0,0); fill-rule: nonzero; opacity: 1;" vector-effect="non-scaling-stroke"  transform=" translate(-22.5, -131)" d="M 0 0 L 45 0 L 45 262 L 0 262 z" stroke-linecap="round" />
</g>
		<g transform="matrix(1 0 0 1 0 -131)" id="Q74sv3YEnuuhaVG8lPndW"  >
<path style="stroke: rgb(0,0,0); stroke-width: 0; stroke-dasharray: none; stroke-linecap: butt; stroke-dashoffset: 0; stroke-linejoin: miter; stroke-miterlimit: 4; fill: rgb(0,0,0); fill-rule: nonzero; opacity: 1;" vector-effect="non-scaling-stroke"  transform=" translate(-22.5, -22.5)" d="M 22.5 0 C 34.92 0 45 10.08 45 22.5 C 45 34.92 34.92 45 22.5 45 C 10.08 45 0 34.92 0 22.5 C 0 10.08 10.08 0 22.5 0 z" stroke-linecap="round" />
</g>
		<g transform="matrix(1 0 0 1 0 131)" id="L8kpLED5HRbjVDH95pMcb"  >
<path style="stroke: rgb(0,0,0); stroke-width: 0; stroke-dasharray: none; stroke-linecap: butt; stroke-dashoffset: 0; stroke-linejoin: miter; stroke-miterlimit: 4; fill: rgb(0,0,0); fill-rule: nonzero; opacity: 1;" vector-effect="non-scaling-stroke"  transform=" translate(-22.5, -22.5)" d="M 22.5 0 C 34.92 0 45 10.08 45 22.5 C 45 34.92 34.92 45 22.5 45 C 10.08 45 0 34.92 0 22.5 C 0 10.08 10.08 0 22.5 0 z" stroke-linecap="round" />
</g>
</g>
</g>
		<g transform="matrix(1 0 0 1 0 0)" id="zPQjSinl7dNRBawCXWaqP"  >
<g style="" vector-effect="non-scaling-stroke"   >
		<g transform="matrix(1 0 0 1 -199.35 0)" id="2OxPRvUXVPLyWIeGXLQsl"  >
<g style="" vector-effect="non-scaling-stroke"   >
		<g transform="matrix(1 0 0 1 0 -57.19)" id="K2gnXKHESrv_lcxgr9K_z"  >
<g style="" vector-effect="non-scaling-stroke"   >
		<g transform="matrix(0.71 0.71 -0.71 0.71 0.07 -0.07)" id="yYld__xEFHmWLkPTA6OpN"  >
<path style="stroke: rgb(0,0,0); stroke-width: 0; stroke-dasharray: none; stroke-linecap: butt; stroke-dashoffset: 0; stroke-linejoin: miter; stroke-miterlimit: 4; fill: rgb(0,0,0); fill-rule: nonzero; opacity: 1;" vector-effect="non-scaling-stroke"  transform=" translate(-22.5, -80)" d="M 0 0 L 45 0 L 45 160 L 0 160 z" stroke-linecap="round" />
</g>
		<g transform="matrix(0.71 0.71 -0.71 0.71 56.5 -56.5)" id="rBHICRZmeHTgkuKCBiDBY"  >
<path style="stroke: rgb(0,0,0); stroke-width: 0; stroke-dasharray: none; stroke-linecap: butt; stroke-dashoffset: 0; stroke-linejoin: miter; stroke-miterlimit: 4; fill: rgb(0,0,0); fill-rule: nonzero; opacity: 1;" vector-effect="non-scaling-stroke"  transform=" translate(-22.5, -22.5)" d="M 22.5 0 C 34.92 0 45 10.08 45 22.5 C 45 34.92 34.92 45 22.5 45 C 10.08 45 0 34.92 0 22.5 C 0 10.08 10.08 0 22.5 0 z" stroke-linecap="round" />
</g>
		<g transform="matrix(0.71 0.71 -0.71 0.71 -56.5 56.5)" id="zwRXpNGNe3dThBplyG8Yg"  >
<path style="stroke: rgb(0,0,0); stroke-width: 0; stroke-dasharray: none; stroke-linecap: butt; stroke-dashoffset: 0; stroke-linejoin: miter; stroke-miterlimit: 4; fill: rgb(0,0,0); fill-rule: nonzero; opacity: 1;" vector-effect="non-scaling-stroke"  transform=" translate(-22.5, -22.5)" d="M 22.5 0 C 34.92 0 45 10.08 45 22.5 C 45 34.92 34.92 45 22.5 45 C 10.08 45 0 34.92 0 22.5 C 0 10.08 10.08 0 22.5 0 z" stroke-linecap="round" />
</g>
</g>
</g>
		<g transform="matrix(1 0 0 -1 0 57.19)" id="7gfqDSTbAwyujnY6Fq1SI"  >
<g style="" vector-effect="non-scaling-stroke"   >
		<g transform="matrix(0.71 0.71 -0.71 0.71 0.07 -0.07)" id="tGbRa-Qgxk7uNYWH8lHnH"  >
<path style="stroke: rgb(0,0,0); stroke-width: 0; stroke-dasharray: none; stroke-linecap: butt; stroke-dashoffset: 0; stroke-linejoin: miter; stroke-miterlimit: 4; fill: rgb(0,0,0); fill-rule: nonzero; opacity: 1;" vector-effect="non-scaling-stroke"  transform=" translate(-22.5, -80)" d="M 0 0 L 45 0 L 45 160 L 0 160 z" stroke-linecap="round" />
</g>
		<g transform="matrix(0.71 0.71 -0.71 0.71 56.5 -56.5)" id="aeJAOdRWm64CUzcvInOR2"  >
<path style="stroke: rgb(0,0,0); stroke-width: 0; stroke-dasharray: none; stroke-linecap: butt; stroke-dashoffset: 0; stroke-linejoin: miter; stroke-miterlimit: 4; fill: rgb(0,0,0); fill-rule: nonzero; opacity: 1;" vector-effect="non-scaling-stroke"  transform=" translate(-22.5, -22.5)" d="M 22.5 0 C 34.92 0 45 10.08 45 22.5 C 45 34.92 34.92 45 22.5 45 C 10.08 45 0 34.92 0 22.5 C 0 10.08 10.08 0 22.5 0 z" stroke-linecap="round" />
</g>
		<g transform="matrix(0.71 0.71 -0.71 0.71 -56.5 56.5)" id="6BZ51m1_Dokrl0F77qNHu"  >
<path style="stroke: rgb(0,0,0); stroke-width: 0; stroke-dasharray: none; stroke-linecap: butt; stroke-dashoffset: 0; stroke-linejoin: miter; stroke-miterlimit: 4; fill: rgb(0,0,0); fill-rule: nonzero; opacity: 1;" vector-effect="non-scaling-stroke"  transform=" translate(-22.5, -22.5)" d="M 22.5 0 C 34.92 0 45 10.08 45 22.5 C 45 34.92 34.92 45 22.5 45 C 10.08 45 0 34.92 0 22.5 C 0 10.08 10.08 0 22.5 0 z" stroke-linecap="round" />
</g>
</g>
</g>
</g>
</g>
		<g transform="matrix(1 0 0 1 199.35 0)" id="B8_CySTk1r7GhVDcBs0j9"  >
<g style="" vector-effect="non-scaling-stroke"   >
		<g transform="matrix(-1 0 0 1 0 -57.19)" id="AHUTBIOocHeZ8olTrOyaf"  >
<g style="" vector-effect="non-scaling-stroke"   >
		<g transform="matrix(0.71 0.71 -0.71 0.71 0.07 -0.07)" id="bUTLBQEkKLVFFt7YHe2dz"  >
<path style="stroke: rgb(0,0,0); stroke-width: 0; stroke-dasharray: none; stroke-linecap: butt; stroke-dashoffset: 0; stroke-linejoin: miter; stroke-miterlimit: 4; fill: rgb(0,0,0); fill-rule: nonzero; opacity: 1;" vector-effect="non-scaling-stroke"  transform=" translate(-22.5, -80)" d="M 0 0 L 45 0 L 45 160 L 0 160 z" stroke-linecap="round" />
</g>
		<g transform="matrix(0.71 0.71 -0.71 0.71 56.5 -56.5)" id="oWPEyuQjL_Y-ndnvBe28-"  >
<path style="stroke: rgb(0,0,0); stroke-width: 0; stroke-dasharray: none; stroke-linecap: butt; stroke-dashoffset: 0; stroke-linejoin: miter; stroke-miterlimit: 4; fill: rgb(0,0,0); fill-rule: nonzero; opacity: 1;" vector-effect="non-scaling-stroke"  transform=" translate(-22.5, -22.5)" d="M 22.5 0 C 34.92 0 45 10.08 45 22.5 C 45 34.92 34.92 45 22.5 45 C 10.08 45 0 34.92 0 22.5 C 0 10.08 10.08 0 22.5 0 z" stroke-linecap="round" />
</g>
		<g transform="matrix(0.71 0.71 -0.71 0.71 -56.5 56.5)" id="oGgymgpjpR5Ng9O_AyOJg"  >
<path style="stroke: rgb(0,0,0); stroke-width: 0; stroke-dasharray: none; stroke-linecap: butt; stroke-dashoffset: 0; stroke-linejoin: miter; stroke-miterlimit: 4; fill: rgb(0,0,0); fill-rule: nonzero; opacity: 1;" vector-effect="non-scaling-stroke"  transform=" translate(-22.5, -22.5)" d="M 22.5 0 C 34.92 0 45 10.08 45 22.5 C 45 34.92 34.92 45 22.5 45 C 10.08 45 0 34.92 0 22.5 C 0 10.08 10.08 0 22.5 0 z" stroke-linecap="round" />
</g>
</g>
</g>
		<g transform="matrix(-1 0 0 -1 0 57.19)" id="VXBt6-icbN_W2KENR2phB"  >
<g style="" vector-effect="non-scaling-stroke"   >
		<g transform="matrix(0.71 0.71 -0.71 0.71 0.07 -0.07)" id="XVnp44Afyud-DhlAeppt1"  >
<path style="stroke: rgb(0,0,0); stroke-width: 0; stroke-dasharray: none; stroke-linecap: butt; stroke-dashoffset: 0; stroke-linejoin: miter; stroke-miterlimit: 4; fill: rgb(0,0,0); fill-rule: nonzero; opacity: 1;" vector-effect="non-scaling-stroke"  transform=" translate(-22.5, -80)" d="M 0 0 L 45 0 L 45 160 L 0 160 z" stroke-linecap="round" />
</g>
		<g transform="matrix(0.71 0.71 -0.71 0.71 56.5 -56.5)" id="RyrlUflrk3SB3N-eCeKy1"  >
<path style="stroke: rgb(0,0,0); stroke-width: 0; stroke-dasharray: none; stroke-linecap: butt; stroke-dashoffset: 0; stroke-linejoin: miter; stroke-miterlimit: 4; fill: rgb(0,0,0); fill-rule: nonzero; opacity: 1;" vector-effect="non-scaling-stroke"  transform=" translate(-22.5, -22.5)" d="M 22.5 0 C 34.92 0 45 10.08 45 22.5 C 45 34.92 34.92 45 22.5 45 C 10.08 45 0 34.92 0 22.5 C 0 10.08 10.08 0 22.5 0 z" stroke-linecap="round" />
</g>
		<g transform="matrix(0.71 0.71 -0.71 0.71 -56.5 56.5)" id="jZoEw0ks9QmVtHEN4-Qyc"  >
<path style="stroke: rgb(0,0,0); stroke-width: 0; stroke-dasharray: none; stroke-linecap: butt; stroke-dashoffset: 0; stroke-linejoin: miter; stroke-miterlimit: 4; fill: rgb(0,0,0); fill-rule: nonzero; opacity: 1;" vector-effect="non-scaling-stroke"  transform=" translate(-22.5, -22.5)" d="M 22.5 0 C 34.92 0 45 10.08 45 22.5 C 45 34.92 34.92 45 22.5 45 C 10.08 45 0 34.92 0 22.5 C 0 10.08 10.08 0 22.5 0 z" stroke-linecap="round" />
</g>
</g>
</g>
</g>
</g>
</g>
</g>
</g>
</g>
</svg>
